<?xml version="1.0" standalone="no"?>
<!DOCTYPE svg PUBLIC "-//W3C//DTD SVG 20010904//EN"
 "http://www.w3.org/TR/2001/REC-SVG-20010904/DTD/svg10.dtd">
<svg version="1.0" xmlns="http://www.w3.org/2000/svg"
 width="225.000000pt" height="225.000000pt" viewBox="0 0 225.000000 225.000000"
 preserveAspectRatio="xMidYMid meet">
<metadata>
Created by potrace 1.14, written by Peter Selinger 2001-2017
</metadata>
<g transform="translate(0.000000,225.000000) scale(0.100000,-0.100000)"
fill="#000000" stroke="none">
<path d="M375 2231 c-181 -52 -312 -186 -360 -369 -14 -54 -15 -145 -12 -744
3 -704 7 -786 37 -738 8 13 10 13 10 -1 0 -8 -5 -20 -12 -27 -6 -6 -9 -14 -6
-17 3 -4 12 7 19 24 7 16 17 27 22 24 5 -3 6 8 2 27 -5 21 -4 30 3 26 6 -3 22
7 35 24 14 16 28 30 31 30 3 0 22 18 42 40 20 22 42 40 49 40 7 0 16 7 19 16
3 8 11 12 17 8 18 -11 28 16 17 50 -16 51 -20 282 -10 631 10 370 11 379 87
497 72 111 182 184 322 213 85 18 775 21 868 4 181 -33 341 -174 395 -348 19
-59 20 -93 20 -511 0 -417 -1 -452 -20 -511 -45 -147 -156 -266 -302 -326 -54
-22 -84 -27 -218 -33 -85 -3 -148 -7 -139 -8 21 -3 63 -142 60 -199 l-3 -43
224 0 c242 0 305 9 413 61 67 32 175 140 208 209 57 119 57 115 57 848 0 584
-2 682 -16 736 -9 33 -20 67 -26 74 -6 6 -7 12 -2 12 5 0 5 4 -1 8 -5 4 -19
25 -30 47 -24 49 -120 145 -177 178 -24 14 -77 35 -119 46 -73 20 -95 21 -760
20 -616 0 -690 -2 -744 -18z"/>
<path d="M674 1789 c-59 -22 -132 -83 -164 -135 -46 -73 -50 -116 -49 -494 1
-195 4 -380 7 -410 l7 -55 40 5 c22 3 91 5 153 5 96 0 116 -3 126 -17 9 -12
16 -14 23 -7 8 8 14 5 22 -10 12 -22 36 -28 45 -12 4 5 -3 7 -14 4 -15 -4 -20
0 -20 15 0 19 1 19 34 3 21 -10 29 -19 22 -24 -6 -5 5 -5 24 -2 22 4 30 3 22
-3 -9 -6 -1 -14 30 -28 23 -10 49 -19 58 -19 8 0 14 -8 14 -18 -1 -10 1 -16 4
-13 8 8 53 -23 77 -53 11 -14 28 -32 37 -40 13 -11 15 -17 5 -23 -6 -5 76 -7
183 -6 182 3 198 5 243 27 62 30 121 91 155 161 l27 55 3 409 c3 388 2 412
-17 476 -26 85 -88 157 -169 197 l-57 28 -410 2 c-389 2 -413 1 -461 -18z
m974 -124 c38 -32 48 -72 28 -118 -44 -105 -196 -71 -196 45 0 86 100 130 168
73z m-384 -71 c136 -35 241 -119 296 -237 90 -191 56 -409 -88 -559 -98 -103
-204 -148 -349 -148 -48 0 -106 5 -128 12 -22 6 -44 11 -48 10 -4 -1 -15 5
-24 13 -8 9 -22 14 -30 11 -8 -3 -11 -1 -8 4 3 6 -1 10 -10 10 -9 0 -46 31
-83 68 -101 102 -152 221 -152 352 0 211 141 401 345 466 57 18 205 17 279 -2z"/>
<path d="M1065 1381 c-78 -19 -149 -85 -180 -165 -48 -125 29 -287 154 -325
179 -53 341 68 341 254 0 130 -64 205 -198 234 -58 12 -73 12 -117 2z"/>
</g>
</svg>
